<?xml version="1.0" encoding="UTF-8" standalone="no"?>
<!-- Created with Inkscape (http://www.inkscape.org/) -->

<svg
   width="149.97623mm"
   height="32.146873mm"
   viewBox="0 0 149.97623 32.146873"
   version="1.1"
   id="svg1"
   inkscape:version="1.3.2 (091e20e, 2023-11-25)"
   sodipodi:docname="joskuaBanner.svg"
   xmlns:inkscape="http://www.inkscape.org/namespaces/inkscape"
   xmlns:sodipodi="http://sodipodi.sourceforge.net/DTD/sodipodi-0.dtd"
   xmlns="http://www.w3.org/2000/svg"
   xmlns:svg="http://www.w3.org/2000/svg">
  <sodipodi:namedview
     id="namedview1"
     pagecolor="#ffffff"
     bordercolor="#000000"
     borderopacity="0.25"
     inkscape:showpageshadow="2"
     inkscape:pageopacity="0.0"
     inkscape:pagecheckerboard="0"
     inkscape:deskcolor="#d1d1d1"
     inkscape:document-units="mm"
     inkscape:zoom="0.55310516"
     inkscape:cx="284.75598"
     inkscape:cy="188.93333"
     inkscape:window-width="1920"
     inkscape:window-height="1052"
     inkscape:window-x="0"
     inkscape:window-y="28"
     inkscape:window-maximized="0"
     inkscape:current-layer="layer1" />
  <defs
     id="defs1" />
  <g
     inkscape:label="Layer 1"
     inkscape:groupmode="layer"
     id="layer1"
     transform="translate(-29.672493,-98.613796)">
    <g
       id="g16"
       style="fill:#65db7b;fill-opacity:1"
       transform="matrix(0.26458333,0,0,0.26458333,-20.421606,-130.89519)">
      <path
         id="path14"
         style="fill:#65db7b;fill-opacity:1"
         d="m 725.83146,890.40269 -11.41211,0.26562 -11.41211,0.26758 -2.75782,8.5 -2.75781,8.5 -12.08008,35.49805 -12.08007,35.49609 v 0.75387 0.752 h 7.93359 7.93164 l 3.78516,-11.50001 3.78515,-11.5 h 17.65235 17.65234 l 2.54492,7.25 2.54297,7.25 1.24414,4.25 1.24414,4.25001 h 8.26172 8.26172 l -15.16992,-45.01759 z m -11.24805,13.74219 6.35937,19.89648 6.35938,19.89453 0.0156,0.75 0.0137,0.75 h -13.10743 -13.10546 l 0.70898,-1.75 0.70898,-1.75 0.83789,-2.5 0.83789,-2.5 5.18555,-16.39453 z" />
      <path
         id="path13"
         style="fill:#65db7b;fill-opacity:1"
         d="m 323.83146,889.93589 -6.6543,3.25586 -6.6543,3.25586 -4.96484,5.42969 -4.96289,5.43164 -2.78125,6.81445 -2.78125,6.8125 -0.48047,11.37695 -0.48242,11.37696 1.24218,5.62304 1.24024,5.62305 2.36133,5.03711 2.36328,5.03711 3.61133,4.2207 3.61132,4.21875 4.45313,2.60938 4.45117,2.60937 4.21485,1.36719 4.21289,1.3691 11.5,-0.2949 11.5,-0.2949 6,-2.9043 6,-2.90625 5.03906,-5.03516 5.03906,-5.0332 2.30078,-4.92969 2.30078,-4.93164 1.39258,-6.56836 1.39258,-6.57031 0.0176,-6.18359 0.0176,-6.18555 -1.51563,-7.20508 -1.51562,-7.20312 -3.125,-5.86328 -3.125,-5.86329 -4.4336,-4.08789 -4.43359,-4.08789 -5.67578,-2.66015 -5.67578,-2.66016 h -12.5 z m 14.19726,13.26953 5.40039,1.58203 5.40235,1.58008 3.51171,2.91016 3.50977,2.9082 2.25195,4.50977 2.25196,4.50976 1.09765,5.86524 1.09571,5.86523 -0.55469,6.06641 -0.55469,6.0664 -2.06836,5.53125 -2.07031,5.53321 -3.63672,3.63672 -3.63672,3.63476 -5.38672,2.01563 -5.38476,2.01562 -3.71289,-0.0469 -3.71289,-0.0469 -4.91797,-1.91992 -4.91992,-1.92188 -3.26368,-3.16406 -3.26562,-3.16406 -2.19141,-5.09375 -2.18945,-5.09375 -0.5,-8.02344 -0.49805,-8.02539 1.61914,-6.3125 1.61914,-6.31445 2.90625,-4.22461 2.90625,-4.22461 4.99219,-2.7168 4.99024,-2.7168 4.45507,-0.60937 z" />
      <path
         style="fill:#65db7b;fill-opacity:1"
         d="m 590.08146,890.43589 -8.25,0.002 0.13671,31.74805 0.13477,31.75 1.21875,4.49414 1.21875,4.49414 1.80859,3.50586 1.80664,3.50586 3.3379,3.14258 3.33789,3.14258 4.29101,2.14843 4.29102,2.14837 5.70898,0.8809 5.70899,0.8828 6.5,-0.4785 6.5,-0.4785 5.01953,-1.4043 5.01953,-1.40623 4.59961,-3.04688 4.59961,-3.04687 2.73047,-3.9375 2.72851,-3.9375 1.60742,-4.30469 1.60938,-4.30469 0.37695,-32.75 0.375,-32.75 h -8.08203 -8.08398 v 28.45117 28.45117 l -1.13477,5.29883 -1.13477,5.29883 -3.65039,3.6543 -3.65234,3.65429 -4.45312,1.19922 -4.45313,1.19922 -5.66992,-0.41015 -5.66992,-0.41211 -4.16993,-2.75782 -4.16796,-2.75976 -1.9004,-4.1836 -1.89843,-4.18359 -0.0234,-31.25 -0.0215,-31.25 z"
         id="path12" />
      <path
         style="fill:#65db7b;fill-opacity:1"
         d="m 543.267,890.36558 -2.71679,3.25586 -2.71875,3.2539 -14.79493,17.25196 -14.79492,17.25 -0.95508,0.59179 -0.95507,0.58985 v -21.0586 -21.05859 h -8 -8 v 45 45.00005 l 8,-0.01 h 8 v -12.28321 -12.28125 l 5.57617,-6.71875 5.57617,-6.7168 h 0.33594 0.33593 l 12.8379,18.99219 12.83789,18.99222 9.25,0.01 9.25,0.012 v -0.5411 -0.541 l -15.14454,-21.70897 -15.14648,-21.70898 -1.82422,-2.61328 -1.82422,-2.61328 16.54883,-19.88672 16.55078,-19.88672 -9.11328,-0.28906 z"
         id="path10" />
      <path
         style="fill:#65db7b;fill-opacity:1"
         d="m 440.08731,889.23277 -10.62695,0.41211 -10.6289,0.4121 -5.22657,2.3086 -5.22656,2.30664 -3.94726,4.28125 -3.94727,4.28125 -1.07031,3.85547 -1.07032,3.85547 v 4 4 l 1.03321,3.71875 1.0332,3.71875 2.62695,3.12304 2.62891,3.125 3.65625,2.30664 3.6543,2.3086 7.92773,2.46679 7.92774,2.4668 7.5,1.79492 7.5,1.79493 3.25,3.23828 3.25,3.23632 v 3.05274 3.05273 l -1.17188,2.57227 -1.17187,2.57226 -3.39063,2.09571 -3.39062,2.0957 -6.1875,0.49023 -6.1875,0.49219 -4.20508,-1.13867 -4.20313,-1.13672 -3,-2.52344 -2.99804,-2.52343 -1.24805,-3.45117 -1.24609,-3.44922 h -7.80079 -7.79882 v 2.41601 2.41797 l 2.0625,4.83203 2.0625,4.83399 3.1875,3.33789 3.1875,3.33984 4.95312,2.53125 4.95508,2.52926 7.04492,0.7442 7.04688,0.7441 5,-0.4355 5,-0.4278 4.55468,-0.9882 4.55469,-0.99028 4.99414,-2.85156 4.99219,-2.85352 2.95312,-4.25781 2.95118,-4.25976 v -9.66016 -9.6582 l -2.72657,-4.1211 -2.72851,-4.12109 -4.27149,-2.48828 -4.27343,-2.48828 -8,-2.18555 -8,-2.18555 -8.40821,-2.46289 -8.4082,-2.46484 -2.8418,-2.83985 -2.84179,-2.84179 v -2.62696 -2.62695 l 1.47265,-2.84766 1.47266,-2.84765 4.34375,-2.10352 4.34375,-2.10156 5.43359,0.01 5.4336,0.01 3.66796,1.01953 3.66797,1.01758 3.08203,3.51172 3.08204,3.50977 v 1.46484 1.4668 h 7.97461 7.97656 l -0.60742,-3.25 -0.60547,-3.25 -2.18946,-4.5 -2.18945,-4.5 -4.24609,-3.24219 -4.2461,-3.24219 -5.55468,-1.61523 z"
         id="path8" />
      <path
         id="path7"
         style="fill:#65db7b;fill-opacity:1"
         d="m 208.33203,867.43555 v 11.5 11.5 h 22.5 22.5 v 37.5 37.5 h -22 -22 v -10.5 -10.5 h -10 -10 v 10.5 10.5 h 9.5 9.5 v 11.75 11.75 l 21.24609,-0.1875 21.2461,-0.18555 11.20898,-11.81445 11.20703,-11.8125 0.0469,-48.75 0.0391,-42.00196 h -8.05859 v -6.74804 h -24.43555 z" />
    </g>
  </g>
</svg>
